<svg width="28" height="28" viewBox="0 0 28 28" fill="none" xmlns="http://www.w3.org/2000/svg">
<path d="M27.3334 19.5868C27.3334 24.4401 24.44 27.3334 19.5867 27.3334H18C17.2667 27.3334 16.6667 26.7334 16.6667 26.0001V18.3068C16.6667 17.9468 16.96 17.6401 17.32 17.6401L19.6667 17.6001C19.8534 17.5868 20.0134 17.4534 20.0534 17.2668L20.52 14.7201C20.56 14.4801 20.3734 14.2534 20.12 14.2534L17.28 14.2934C16.9067 14.2934 16.6134 14.0001 16.6 13.6401L16.5467 10.3734C16.5467 10.1601 16.72 9.97343 16.9467 9.97343L20.1467 9.92008C20.3733 9.92008 20.5467 9.74677 20.5467 9.5201L20.4933 6.32007C20.4933 6.0934 20.32 5.92008 20.0934 5.92008L16.4933 5.97343C14.28 6.01343 12.52 7.82675 12.56 10.0401L12.6267 13.7067C12.64 14.0801 12.3467 14.3734 11.9734 14.3868L10.3734 14.4134C10.1467 14.4134 9.97337 14.5867 9.97337 14.8134L10.0134 17.3468C10.0134 17.5734 10.1867 17.7467 10.4134 17.7467L12.0134 17.7201C12.3867 17.7201 12.68 18.0134 12.6933 18.3734L12.8133 25.9734C12.8267 26.7201 12.2267 27.3334 11.48 27.3334H8.41335C3.56002 27.3334 0.666687 24.4401 0.666687 19.5734V8.41341C0.666687 3.56008 3.56002 0.666748 8.41335 0.666748H19.5867C24.44 0.666748 27.3334 3.56008 27.3334 8.41341V19.5868Z" fill="#7562E0"/>
</svg>
